PathFileType	4	(X/Y/Z)	D:\TRACE\spotREDO_2-26-24\spot_Both_Motion_1_4-v60.trc
DataRate	CameraRate	NumFrames	NumMarkers	Units	OrigDataRate	OrigDataStartFrame	OrigNumFrames
100.00	100.00	      24	9	mm	100.00	876	      7000
Frame#	Time	front left toe			Front right toe			aft left toe			aft right toe			Arm			FL body			FR body			AL Body			AR Body			
		X1	Y1	Z1	X2	Y2	Z2	X3	Y3	Z3	X4	Y4	Z4	X5	Y5	Z5	X6	Y6	Z6	X7	Y7	Z7	X8	Y8	Z8	X9	Y9	Z9	

876	8.750	-315.81644	163.53246	-436.82492	139.53055	29.10973	-303.39542	-422.48022	20.46098	108.74241	8.11228	12.49147	171.11681	-71.56460	757.79327	-740.82208	-104.08127	602.22021	-466.32083	49.48927	608.23401	-441.40106	-249.65215	543.91565	403.80069	-110.85703	550.04962	428.50311	
877	8.760	-316.10321	161.10297	-435.54410	137.39026	29.85478	-304.21765	-423.64606	20.73871	109.58553	7.42707	12.41035	170.83899	-71.60506	757.97668	-741.16132	-108.33950	602.31604	-466.13818	44.76968	608.90863	-442.00635	-249.80307	543.62134	404.77441	-111.26477	550.00177	428.68326	
878	8.770	-315.78809	158.72992	-435.23257	135.58543	30.38896	-305.04404	-424.28912	20.72646	109.91797	7.15629	12.20850	170.77631	-70.10543	758.36102	-741.48199	-113.46860	602.94867	-465.89600	40.17620	609.78766	-442.62305	-249.80806	543.12042	405.50903	-111.37947	549.89282	428.92847	
879	8.780	-315.18668	154.89885	-436.72382	133.67487	30.79474	-305.95923	-425.02478	20.60830	110.50277	6.55348	11.59633	170.63007	-67.53049	758.92633	-741.91565	-117.99671	603.40796	-466.01907	35.49035	610.35083	-443.19382	-250.54900	542.93292	406.41418	-112.01913	549.84613	428.96545	
880	8.790	-312.18283	147.77045	-438.70502	132.22108	30.83648	-306.13199	-426.43677	20.58811	110.92395	6.40182	11.65037	170.66437	-64.77593	759.48401	-742.47351	-122.02720	603.55664	-465.91672	31.38920	610.85193	-443.60294	-252.01144	543.00500	406.69778	-112.74840	549.77112	428.98126	
881	8.800	-308.05942	138.11426	-440.85934	130.71506	31.21965	-306.29166	-427.06024	20.50241	110.94394	5.11932	11.77702	170.43463	-62.05362	759.74323	-742.94220	-125.89198	603.75049	-465.97556	27.70433	611.23059	-444.00925	-253.89938	543.11169	406.87308	-114.46780	550.09454	428.85498	
882	8.810	-302.82373	127.11291	-442.70135	129.91264	31.09672	-306.38608	-428.35400	20.18998	110.76711	4.38392	12.34468	170.14217	-59.78790	760.02655	-743.55170	-128.78351	603.79407	-466.52692	24.90225	611.41943	-444.24435	-256.76706	543.39948	406.46030	-117.69691	550.72064	428.57394	
883	8.820	-297.84030	114.79887	-444.35440	129.33656	30.62049	-306.17947	-429.12225	20.12497	110.53798	2.44199	12.99413	170.16051	-57.48820	759.77875	-742.95856	-131.59132	603.60187	-466.68948	22.48606	611.13770	-444.57944	-260.48105	544.28906	405.75067	-121.40833	551.65802	428.21878	
884	8.830	-293.31384	102.61263	-446.01105	128.99620	29.83275	-305.63034	-430.58594	20.09724	110.13788	0.96408	13.58263	170.20520	-56.23185	759.46484	-742.67212	-132.88492	603.10754	-467.41721	21.18549	610.92194	-444.69012	-265.02618	545.07135	404.78622	-125.77517	552.64917	427.73553	
885	8.840	-289.37515	91.80482	-448.29282	128.60411	29.46759	-304.96844	-432.05463	19.80229	109.76978	-0.47075	14.13175	170.35516	-56.44432	759.15210	-742.62701	-133.78929	602.84747	-468.15216	20.21321	610.71313	-444.93713	-269.92017	545.60901	403.43393	-130.92566	553.22955	426.81979	
886	8.850	-287.15994	81.69097	-450.42734	128.47974	29.11539	-304.51389	-433.32889	19.50863	109.03150	-1.79004	14.61104	170.28886	-57.60889	758.46710	-742.26965	-134.46220	602.71161	-468.97055	19.29396	610.35925	-445.09262	-274.65192	546.03290	401.88757	-136.05081	553.83728	425.94241	
887	8.860	-286.43240	72.68443	-452.31345	128.12442	28.82190	-303.86981	-434.62506	19.45086	108.98164	-3.14845	15.02184	170.35091	-59.38210	757.91730	-742.05371	-135.11633	602.78400	-470.12292	18.57299	610.08722	-445.22974	-279.86490	546.52429	400.12170	-141.11838	554.07709	424.78513	
888	8.870	-285.42831	62.86369	-454.24530	127.96221	28.57430	-303.25055	-435.66370	19.36024	108.69432	-4.31812	14.90907	170.37453	-62.04935	757.51331	-742.00000	-136.57164	602.93878	-471.13751	17.53494	609.85663	-445.77704	-284.47803	546.55493	398.49365	-145.78256	554.10083	423.78821	
889	8.880	-285.08597	52.85543	-455.71716	127.31356	28.55594	-303.07788	-436.93542	19.12661	108.38959	-5.34538	15.22278	170.58446	-64.83686	757.34949	-741.75671	-136.89894	602.58533	-472.61560	16.03186	609.64886	-446.55963	-288.65262	546.66064	396.62582	-150.03870	554.00659	422.38541	
890	8.890	-284.70142	42.19738	-457.08102	125.79514	28.29718	-303.30667	-437.68704	19.18832	108.33222	-6.43535	14.95849	170.44405	-67.78617	757.37000	-741.85919	-138.54326	602.60846	-474.02032	14.34779	609.60022	-447.54330	-292.19519	546.30579	394.80417	-153.81413	553.73761	420.96637	
891	8.900	-286.10333	35.62288	-458.94553	125.50819	28.47276	-303.13956	-438.38882	19.32818	108.26374	-7.25670	14.79917	170.53271	-71.33512	758.10864	-742.26459	-141.01636	602.39191	-475.67203	11.83029	609.44305	-449.11636	-295.74500	545.97961	392.92328	-157.57169	553.62067	419.32733	
892	8.910	-287.84818	34.35437	-458.53561	124.65003	28.33943	-303.66644	-439.81061	19.07366	108.63251	-7.20700	14.52271	170.34547	-73.69955	758.81683	-742.30798	-144.16705	603.17957	-477.13022	8.70057	609.83313	-450.77805	-300.74622	547.30225	392.17078	-160.44476	552.86877	417.66626	
893	8.920	-289.71429	35.12162	-457.11328	122.42635	29.29557	-304.93680	-440.61163	18.34404	108.08454	-8.81859	15.48444	169.47429	-75.65916	759.59009	-742.19690	-147.74138	604.32770	-478.73434	5.18849	611.11920	-452.30154	-301.42001	547.00623	391.11945	-162.63380	552.44476	416.04871	
894	8.930	-289.97800	33.95938	-458.40283	120.76679	30.45367	-305.74652	-442.14267	18.05653	108.13636	-11.56417	16.88993	169.41582	-77.00147	760.76355	-742.47052	-152.11087	605.59985	-480.14349	1.29142	611.84351	-454.18192	-303.27161	547.43707	389.77731	-164.40723	552.54858	414.52628	
895	8.940	-291.92523	33.70322	-458.08475	119.25492	30.64256	-306.12207	-443.00693	18.11173	108.00274	-12.44044	17.10660	168.87735	-78.40426	761.41864	-742.49420	-155.67590	606.90131	-481.44028	-2.93509	612.46179	-456.05273	-304.45956	546.56586	387.96988	-165.54666	552.50604	413.21838	
896	8.950	-292.93893	32.89571	-458.16144	118.38927	30.65594	-306.50037	-443.96164	18.64797	108.22630	-12.64682	17.07374	168.78969	-78.11405	762.00226	-741.78851	-160.81943	608.39063	-482.57895	-7.21531	613.39478	-457.97906	-306.32257	547.12311	387.22287	-167.45215	552.51654	411.91174	
897	8.960	-293.54056	32.62164	-458.25336	116.58628	30.89299	-307.43112	-444.38885	18.66692	108.27626	-13.37337	16.84265	168.39577	-77.80390	762.36694	-742.35724	-164.90697	609.64563	-483.61725	-11.09479	614.17365	-459.41565	-307.41519	547.78375	386.74951	-168.58060	552.74176	410.76346	
898	8.970	-294.32816	32.26294	-458.20288	115.32113	30.87765	-307.80142	-444.81458	18.20958	108.37888	-14.67489	16.99803	168.25049	-76.58592	762.26019	-742.36078	-168.31911	610.77942	-484.89685	-14.50056	615.00995	-460.90198	-308.96741	548.71484	385.88010	-169.80316	553.34613	409.79749	
899	8.980	-295.72382	31.74903	-458.16379	114.67305	30.79985	-308.16196	-446.18747	18.56584	108.20290	-15.18016	17.00346	168.09521	-75.31927	762.29327	-742.36945	-171.59976	611.50922	-485.80365	-17.62524	615.78766	-462.15884	-311.14780	549.57190	384.98630	-171.61305	554.09161	408.82321	
